<?xml version="1.0" encoding="UTF-8" standalone="no"?>
<!-- Created with Inkscape (http://www.inkscape.org/) -->

<svg
   xmlns:dc="http://purl.org/dc/elements/1.1/"
   xmlns:cc="http://creativecommons.org/ns#"
   xmlns:rdf="http://www.w3.org/1999/02/22-rdf-syntax-ns#"
   xmlns:svg="http://www.w3.org/2000/svg"
   xmlns="http://www.w3.org/2000/svg"
   xmlns:sodipodi="http://sodipodi.sourceforge.net/DTD/sodipodi-0.dtd"
   xmlns:inkscape="http://www.inkscape.org/namespaces/inkscape"
   width="744.09448819"
   height="1052.3622047"
   id="svg6138"
   version="1.1"
   inkscape:version="0.48.1 r9760"
   sodipodi:docname="Nuovo documento 17">
  <defs
     id="defs6140">
    <filter
       id="filter4073"
       inkscape:label="Darken edges"
       inkscape:menu="Shadows and Glows"
       inkscape:menu-tooltip="Darken the edges with an inner blur"
       color-interpolation-filters="sRGB">
      <feGaussianBlur
         id="feGaussianBlur4075"
         result="result6"
         stdDeviation="1.5" />
      <feComposite
         id="feComposite4077"
         in2="result6"
         operator="atop"
         in="SourceGraphic"
         result="result8" />
      <feComposite
         id="feComposite4079"
         in2="SourceAlpha"
         in="result8"
         operator="atop"
         result="result9" />
    </filter>
    <inkscape:path-effect
       effect="skeletal"
       id="path-effect2987"
       is_visible="true"
       pattern="m 58,-87 1,0"
       copytype="single_stretched"
       prop_scale="1"
       scale_y_rel="false"
       spacing="0"
       normal_offset="0"
       tang_offset="0"
       prop_units="false"
       vertical_pattern="false"
       fuse_tolerance="0" />
    <inkscape:path-effect
       effect="skeletal"
       id="path-effect2987-3"
       is_visible="true"
       pattern="m 55.760885,-90.641267 1,0"
       copytype="single_stretched"
       prop_scale="1"
       scale_y_rel="false"
       spacing="0"
       normal_offset="0"
       tang_offset="0"
       prop_units="false"
       vertical_pattern="false"
       fuse_tolerance="0" />
    <filter
       id="filter7331"
       inkscape:menu-tooltip="Draws a black outline around"
       inkscape:menu="ABCs"
       inkscape:label="Black outline"
       color-interpolation-filters="sRGB">
      <feGaussianBlur
         id="feGaussianBlur7333"
         stdDeviation="2"
         in="SourceAlpha"
         result="result0" />
      <feComposite
         id="feComposite7335"
         in2="result0"
         result="result3"
         operator="arithmetic"
         in="SourceGraphic"
         k2="1"
         k3="10" />
      <feComposite
         id="feComposite7337"
         in2="result3"
         k2="1"
         operator="in"
         in="result3"
         result="fbSourceGraphic" />
      <feColorMatrix
         result="fbSourceGraphicAlpha"
         in="fbSourceGraphic"
         values="0 0 0 -1 0 0 0 0 -1 0 0 0 0 -1 0 0 0 0 1 0"
         id="feColorMatrix7409" />
      <feGaussianBlur
         id="feGaussianBlur7411"
         stdDeviation="2"
         in="fbSourceGraphicAlpha"
         result="result0" />
      <feComposite
         id="feComposite7413"
         in2="result0"
         result="result3"
         operator="arithmetic"
         in="fbSourceGraphic"
         k2="1"
         k3="10" />
      <feComposite
         id="feComposite7415"
         in2="result3"
         k2="1"
         operator="in"
         in="result3"
         result="result4" />
    </filter>
    <filter
       id="filter7339"
       inkscape:menu-tooltip="Draws a black outline around"
       inkscape:menu="ABCs"
       inkscape:label="Black outline"
       color-interpolation-filters="sRGB">
      <feGaussianBlur
         id="feGaussianBlur7341"
         stdDeviation="2"
         in="SourceAlpha"
         result="result0" />
      <feComposite
         id="feComposite7343"
         in2="result0"
         result="result3"
         operator="arithmetic"
         in="SourceGraphic"
         k2="1"
         k3="10" />
      <feComposite
         id="feComposite7345"
         in2="result3"
         k2="1"
         operator="in"
         in="result3"
         result="result4" />
    </filter>
    <filter
       id="filter7434"
       inkscape:menu-tooltip="Draws a black outline around"
       inkscape:menu="ABCs"
       inkscape:label="Drop shadow"
       color-interpolation-filters="sRGB"
       width="1.5"
       height="1.5"
       x="-.25"
       y="-.25">
      <feGaussianBlur
         id="feGaussianBlur7436"
         stdDeviation="2"
         in="SourceAlpha"
         result="result0" />
      <feComposite
         id="feComposite7438"
         in2="result0"
         result="result3"
         operator="arithmetic"
         in="SourceGraphic"
         k2="1"
         k3="10" />
      <feComposite
         id="feComposite7440"
         in2="result3"
         k2="1"
         operator="in"
         in="result3"
         result="fbSourceGraphic" />
      <feColorMatrix
         result="fbSourceGraphicAlpha"
         in="fbSourceGraphic"
         values="0 0 0 -1 0 0 0 0 -1 0 0 0 0 -1 0 0 0 0 1 0"
         id="feColorMatrix7506" />
      <feGaussianBlur
         id="feGaussianBlur7508"
         in="fbSourceGraphicAlpha"
         stdDeviation="2"
         result="blur" />
      <feColorMatrix
         id="feColorMatrix7510"
         result="bluralpha"
         type="matrix"
         values="1 0 0 0 0 0 1 0 0 0 0 0 1 0 0 0 0 0 0.5 0 " />
      <feOffset
         id="feOffset7512"
         in="bluralpha"
         dx="4"
         dy="4"
         result="offsetBlur" />
      <feMerge
         id="feMerge7514">
        <feMergeNode
           id="feMergeNode7516"
           in="offsetBlur" />
        <feMergeNode
           id="feMergeNode7518"
           in="fbSourceGraphic" />
      </feMerge>
    </filter>
    <filter
       id="filter7442"
       inkscape:menu-tooltip="Draws a black outline around"
       inkscape:menu="ABCs"
       inkscape:label="Black outline"
       color-interpolation-filters="sRGB">
      <feGaussianBlur
         id="feGaussianBlur7444"
         stdDeviation="2"
         in="SourceAlpha"
         result="result0" />
      <feComposite
         id="feComposite7446"
         in2="result0"
         result="result3"
         operator="arithmetic"
         in="SourceGraphic"
         k2="1"
         k3="10" />
      <feComposite
         id="feComposite7448"
         in2="result3"
         k2="1"
         operator="in"
         in="result3"
         result="result4" />
    </filter>
    <filter
       id="filter7520"
       inkscape:label="Feather"
       inkscape:menu="ABCs"
       inkscape:menu-tooltip="Blurred mask on the edge without altering the contents"
       height="1"
       width="1"
       y="0"
       x="0"
       color-interpolation-filters="sRGB">
      <feGaussianBlur
         id="feGaussianBlur7522"
         result="result6"
         stdDeviation="0.4" />
      <feComposite
         id="feComposite7524"
         in2="result6"
         operator="in"
         in="SourceGraphic"
         result="result7" />
      <feComposite
         id="feComposite7526"
         in2="result7"
         operator="in"
         result="fbSourceGraphic"
         in="result7" />
      <feColorMatrix
         result="fbSourceGraphicAlpha"
         in="fbSourceGraphic"
         values="0 0 0 -1 0 0 0 0 -1 0 0 0 0 -1 0 0 0 0 1 0"
         id="feColorMatrix7528" />
      <feGaussianBlur
         id="feGaussianBlur7530"
         result="result6"
         stdDeviation="5"
         in="fbSourceGraphic" />
      <feComposite
         id="feComposite7532"
         in2="result6"
         operator="atop"
         in="fbSourceGraphic"
         result="result91" />
      <feComposite
         id="feComposite7534"
         in2="result91"
         operator="in"
         result="result92" />
      <feComposite
         id="feComposite7536"
         in2="result92"
         operator="in" />
    </filter>
  </defs>
  <sodipodi:namedview
     id="base"
     pagecolor="#ffffff"
     bordercolor="#666666"
     borderopacity="1.0"
     inkscape:pageopacity="0.0"
     inkscape:pageshadow="2"
     inkscape:zoom="0.79296875"
     inkscape:cx="375"
     inkscape:cy="520"
     inkscape:document-units="px"
     inkscape:current-layer="layer1"
     showgrid="false"
     inkscape:window-width="1366"
     inkscape:window-height="743"
     inkscape:window-x="0"
     inkscape:window-y="1"
     inkscape:window-maximized="1" />
  <metadata
     id="metadata6143">
    <rdf:RDF>
      <cc:Work
         rdf:about="">
        <dc:format>image/svg+xml</dc:format>
        <dc:type
           rdf:resource="http://purl.org/dc/dcmitype/StillImage" />
        <dc:title></dc:title>
      </cc:Work>
    </rdf:RDF>
  </metadata>
  <g
     inkscape:label="Livello 1"
     inkscape:groupmode="layer"
     id="layer1">
    <path
       style="fill:#008080;fill-opacity:1;fill-rule:nonzero;stroke:none;filter:url(#filter7520)"
       d="m 260.40226,443.59713 c -4.67284,-0.14432 -7.81802,4.9821 -7.26097,9.2713 0.14182,2.79253 2.30602,4.77533 4.536,6.13497 11.28067,7.84727 25.3463,11.24218 35.41247,20.90623 8.52136,8.45063 7.09948,24.49449 -2.9375,31.15625 -11.67447,8.56002 -25.11882,15.14329 -34.52672,26.45 -7.76438,8.74817 -14.90478,18.57447 -25.24683,24.47527 -7.82633,3.41094 -17.56596,-1.34603 -20.72881,-9.03594 -2.43576,-5.72772 -4.29457,-11.69592 -6.97336,-17.32664 -4.16194,-9.58025 -10.07252,-18.64438 -18.48471,-25.0128 -13.43545,-10.71654 -30.94819,-15.56422 -47.99264,-14.98739 -12.58207,0.1455 -25.16094,1.09091 -37.745084,0.50109 -16.03813,-0.18613 -32.12864,-0.7769 -48.130266,0.43539 -9.31176,3.13303 -13.162925,16.1851 -7.044534,23.87546 5.424396,8.8313 16.29921,13.14332 26.38996,12.39406 14.26071,-0.62949 27.48498,-6.55242 40.814224,-11.07113 14.22751,-4.9729 28.65937,-10.46393 43.8953,-10.97862 13.76356,-0.0554 26.75208,7.9134 34.45475,19.07254 4.39304,6.32485 6.77432,13.86096 7.45443,21.49414 1.42312,11.43364 0.47967,23.44728 5.13109,34.25428 4.36978,9.34973 14.64904,14.8411 24.7228,15.20625 11.04444,1.01947 22.86273,0.40133 32.62945,-5.38127 8.82601,-5.93486 12.51231,-17.75867 9.9065,-27.88014 -1.36206,-6.7758 -2.25816,-14.08837 0.53695,-20.6408 3.98759,-11.21137 14.11154,-19.35862 25.25,-22.875 11.90257,-3.91829 25.8852,-2.7657 36.1696,4.73191 7.41819,6.10113 10.82554,15.46212 13.42286,24.40374 3.18636,10.15739 8.06478,20.47253 16.93895,26.85108 16.46433,12.59096 40.6777,13.52135 58.19506,2.52432 16.17381,-8.75383 31.01195,-20.33249 48.71078,-25.99564 10.91117,-3.664 22.94695,-5.08546 34.12525,-1.73416 11.12513,3.17197 21.29506,9.91834 28.09774,19.33467 9.3586,12.19619 16.92022,26.13811 29.17657,35.80123 12.04013,9.47743 30.30099,10.24754 42.87573,1.34949 4.92786,-3.22358 6.63321,-10.03558 4.45452,-15.39514 -1.48112,-4.1569 -5.19286,-7.02773 -9.23364,-8.49378 -5.45594,-2.36401 -11.93839,-4.08139 -15.24592,-9.47147 -4.5576,-7.64966 -0.29421,-18.63238 7.9779,-21.64697 14.43824,-6.41955 28.815,-13.19418 41.96662,-22.01989 11.79454,-7.85588 22.34069,-17.72742 30.2135,-29.5601 6.35629,-9.46863 11.19933,-20.14446 12.9891,-31.45562 -0.15122,-6.54841 -9.26947,-10.51512 -14.14712,-6.12992 -9.90714,8.48953 -16.5082,20.00062 -25.69245,29.18373 -10.66872,11.48432 -22.64073,22.36994 -37.30589,28.42948 -12.72685,5.42034 -26.83488,6.07681 -40.47183,5.33224 -5.58298,-0.39167 -11.17372,-0.45992 -16.76724,-0.3517 -5.58411,-0.0592 -11.47847,-0.25933 -16.54384,-2.84375 -4.28682,-3.06425 -4.11654,-9.62924 -1.28125,-13.625 4.9314,-9.60827 14.86916,-15.89723 18.41562,-26.32437 3.12988,-8.66248 0.49932,-19.59127 -7.42318,-24.77732 -4.04057,-2.90886 -10.14332,-4.22444 -14.32038,-0.87503 -4.10236,3.19038 -5.03664,8.90903 -4.37096,13.78417 -0.31772,10.6783 -5.95902,20.27114 -12.34473,28.49174 -7.8684,10.12183 -17.08614,19.79337 -29.02146,25.01803 -5.33264,2.52689 -11.72732,2.68984 -17.08346,0.13251 -7.28132,-3.19868 -13.04126,-8.95961 -20.1484,-12.48803 -2.94132,-1.50567 -6.14638,-2.90744 -9.4843,-2.9617 -3.83716,0.93105 -5.30113,5.65325 -4.09114,9.08279 0.74332,7.05919 2.92875,14.51423 0.10924,21.39613 -3.12677,7.36172 -10.77497,11.5119 -18.18376,13.42818 -9.29026,2.50269 -19.9813,2.09512 -28.07157,-3.58288 -6.91235,-5.08147 -10.03587,-13.95939 -9.78079,-22.32249 -0.25599,-12.27097 2.54941,-24.53045 0.74064,-36.77936 -0.5019,-2.99106 -1.05421,-6.28386 -3.12238,-8.60845 -3.29438,-2.64626 -8.67992,-1.79261 -10.96863,1.75243 -5.33222,4.76197 -9.73554,11.23011 -16.93004,13.31646 -8.25121,2.82076 -18.04577,-2.52897 -20.43335,-10.8495 -3.49996,-9.55311 -2.25439,-20.47274 -7.57335,-29.42106 -3.07778,-5.46516 -8.53206,-9.09949 -14.32588,-11.18645 -8.41174,-3.3678 -17.46709,-4.73793 -26.42757,-5.67775 -2.61261,-0.1554 -5.22974,-0.30686 -7.84767,-0.2043 z"
       id="rect6146"
       inkscape:connector-curvature="0"
       sodipodi:nodetypes="ccccccccccccccccccccccccc" />
    <g
       id="g3308"
       transform="matrix(0.93599294,0,0,0.87345848,270.84562,150.42585)"
       style="filter:url(#filter7442)">
      <g
         id="g4593">
        <g
           id="g4581">
          <path
             inkscape:connector-curvature="0"
             id="path3051"
             d="m 414.19754,451.40523 5.40863,1.48686 4.63596,-2.23029 -0.38633,-4.83228 -5.0223,-3.71715 -5.02228,1.11515 -2.31799,4.83228 z"
             style="fill:#ff6600;stroke:#000000;stroke-width:0.37895194px;stroke-linecap:butt;stroke-linejoin:miter;stroke-opacity:1" />
          <path
             inkscape:connector-curvature="0"
             id="path3051-5"
             d="m 367.13197,448.91049 4.6839,1.6803 4.01478,-2.52046 -0.33457,-5.46097 -4.34934,-4.20076 -4.34934,1.26023 -2.00739,5.46098 z"
             style="fill:#ff6600;stroke:#000000;stroke-width:0.37488988px;stroke-linecap:butt;stroke-linejoin:miter;stroke-opacity:1" />
          <path
             inkscape:connector-curvature="0"
             id="path3071"
             d="m 374.91313,441.0767 13.12785,-9.13242 2.85388,5.70776 -14.84018,8.56165 z"
             style="fill:#ff6600;stroke:#000000;stroke-width:0.57077622px;stroke-linecap:butt;stroke-linejoin:miter;stroke-opacity:1" />
          <path
             inkscape:connector-curvature="0"
             id="path3071-6"
             d="m 411.44085,444.70525 -14.52131,-8.4272 5.97374,-3.22884 14.32421,9.84632 z"
             style="fill:#ff6600;stroke:#000000;stroke-width:0.56003714px;stroke-linecap:butt;stroke-linejoin:miter;stroke-opacity:1" />
          <path
             sodipodi:nodetypes="csc"
             inkscape:connector-curvature="0"
             id="path3095"
             d="m 398.34047,459.91065 c 0.97187,3.40639 4.95281,-25.69304 2.79178,-28.34081 -15.98238,-19.58207 -20.16956,31.37798 -2.79178,28.34081 z"
             style="fill:#ff6600;stroke:#000000;stroke-width:0.42024988px;stroke-linecap:butt;stroke-linejoin:miter;stroke-opacity:1" />
          <path
             inkscape:connector-curvature="0"
             id="path3101"
             d="m 403.25772,453.63211 c -0.52126,0.23732 -3.53005,-1.50771 -3.8378,-1.14155 -6.58899,7.83958 8.63504,11.78482 8.63504,16.55251 0,6.70483 -3.83779,13.78362 -3.83779,20.54795 0,0.85086 1.41322,-0.5399 1.9189,-1.14155 6.10347,-7.26192 1.78183,-3.66928 5.27697,-11.98631 4.37285,-10.40561 -1.26942,-16.27678 -8.15532,-22.83105 z"
             style="fill:#ff6600;stroke:#000000;stroke-width:0.52327389px;stroke-linecap:butt;stroke-linejoin:miter;stroke-opacity:1" />
          <path
             inkscape:connector-curvature="0"
             id="path3101-3"
             d="m 387.82282,450.95477 c 0.52126,0.23731 3.53005,-1.50772 3.8378,-1.14155 6.58899,7.83957 -8.63504,11.78481 -8.63504,16.55251 0,6.70482 3.83779,13.78362 3.83779,20.54794 0,0.85086 -1.41322,-0.5399 -1.9189,-1.14155 -6.10347,-7.26191 -1.78183,-3.66928 -5.27697,-11.9863 -4.37285,-10.40562 1.26942,-16.27678 8.15532,-22.83105 z"
             style="fill:#ff6600;stroke:#000000;stroke-width:0.52327389px;stroke-linecap:butt;stroke-linejoin:miter;stroke-opacity:1" />
          <path
             inkscape:connector-curvature="0"
             id="path3121"
             d="m 385.72129,486.73714 c -7.75501,-0.55812 6.3815,0.96845 -2.85388,-0.57078 -2.39074,-0.39845 -13.34175,2.63998 -10.27397,5.70776 3.95997,3.95998 13.12785,-1.79676 13.12785,-5.13698 z"
             style="fill:#ff6600;stroke:#000000;stroke-width:0.57077622px;stroke-linecap:butt;stroke-linejoin:miter;stroke-opacity:1" />
          <path
             inkscape:connector-curvature="0"
             id="path3123"
             d="m 405.12768,488.44947 c 8.2539,-4.81038 -6.78188,3.10555 2.85388,-1.71233 1.93702,-0.96851 6.9187,0 9.13242,0 10.46245,0 -6.56695,10.74457 -11.9863,1.71233 z"
             style="fill:#ff6600;stroke:#000000;stroke-width:0.57077622px;stroke-linecap:butt;stroke-linejoin:miter;stroke-opacity:1" />
          <path
             inkscape:connector-curvature="0"
             id="path3125"
             d="m 395.99526,426.23486 c 1.40508,0.76962 3.14634,-2.14395 7.99087,-4.56621 5.25769,-2.62885 -6.2397,-16.59135 -9.13242,-13.69863 -5.01325,5.01325 -15.57167,6.6886 -6.84932,15.41095 3.58986,3.58986 1.83999,4.08406 7.99087,2.85389 z"
             style="fill:#ff6600;stroke:#000000;stroke-width:0.57077622px;stroke-linecap:butt;stroke-linejoin:miter;stroke-opacity:1" />
        </g>
        <path
           style="fill:none;stroke:#000000;stroke-width:0.78542769px;stroke-linecap:butt;stroke-linejoin:miter;stroke-opacity:1"
           d="m 414.94064,376.57068 c -8.09333,19.51936 -3.26271,73.26837 -10.84475,109.16109"
           id="path3014"
           inkscape:connector-curvature="0" />
        <path
           style="fill:none;stroke:#000000;stroke-width:0.80347019px;stroke-linecap:butt;stroke-linejoin:miter;stroke-opacity:1"
           d="m 374.9863,376.57068 c 2.05821,18.58423 6.43198,72.33739 7.99087,106.3167"
           id="path3016"
           inkscape:connector-curvature="0" />
        <path
           style="fill:#ff7f2a;fill-rule:evenodd;stroke:none"
           d="m 420.19094,386.97428 -42.03139,-13.45357 -6.99255,1.58959 0,0 45.31566,14.10188 0,0 z"
           id="path2985"
           inkscape:path-effect="#path-effect2987"
           inkscape:original-d="m 420.19094,386.97428 -42.03139,-13.45357 -6.99255,1.58959 45.31566,14.10188 z"
           inkscape:connector-curvature="0" />
        <path
           style="fill:#ff7f2a;fill-rule:evenodd;stroke:none"
           d="m 416.83203,372.67249 -42.07983,11.62766 -2.83555,4.10617 0,0 44.92945,-12.76482 0,0 z"
           id="path2985-3"
           inkscape:path-effect="#path-effect2987-3"
           inkscape:original-d="m 416.83203,372.67249 -42.07983,11.62766 -2.83555,4.10617 44.92945,-12.76482 z"
           inkscape:connector-curvature="0" />
        <path
           style="fill:none;stroke:#000000;stroke-width:0.57077622px;stroke-linecap:butt;stroke-linejoin:miter;stroke-opacity:1"
           d="m 373.27397,389.12775 c 3.59941,17.51489 -3.1013,32.88576 0.57078,53.0822"
           id="path3010"
           inkscape:connector-curvature="0" />
        <path
           style="fill:none;stroke:#000000;stroke-width:0.57077622px;stroke-linecap:butt;stroke-linejoin:miter;stroke-opacity:1"
           d="m 417.79452,389.12775 c -4.48107,12.40766 -0.79028,38.0223 -4.56621,58.78996"
           id="path3012"
           inkscape:connector-curvature="0" />
      </g>
    </g>
    <g
       transform="matrix(1.1154094,0,0,0.89653181,110.70443,587.3276)"
       style="font-size:104.89743805px;font-style:normal;font-variant:normal;font-weight:normal;font-stretch:normal;text-align:start;line-height:125%;letter-spacing:0px;word-spacing:0px;writing-mode:lr-tb;text-anchor:start;fill:#ff7f2a;fill-opacity:1;stroke:none;filter:url(#filter7434);font-family:Purisa;-inkscape-font-specification:Purisa"
       id="text3127">
      <path
         d="m -15.867231,-116.85051 c 2.377639,8e-5 4.580483,-0.41951 6.6085381,-1.25877 2.0979072,-0.8391 5.0350325,-1.25869 8.81138483,-1.25877 3.00700857,8e-5 5.06998937,0.24485 6.18894887,0.73428 1.1887819,0.41968 1.7832001,1.29382 1.7832564,2.62244 -5.63e-5,1.18892 -0.8042692,2.06306 -2.4126411,2.62244 -1.5385481,0.48959 -5.31485208,1.29381 -11.3289233,2.41264 -4.6854568,0.90918 -8.6016238,1.67843 -11.7485128,2.30774 l -10.594641,2.20285 0,8.391792 c -2.1e-5,5.664517 0.24474,9.965308 0.734282,12.902385 l 0.734282,4.615487 6.713436,-0.734282 c 3.98607,-0.559408 8.077066,-0.839134 12.273,-0.83918 5.384689,4.6e-5 8.07705391,0.524533 8.07710268,1.573462 -4.877e-5,0.979086 -1.64344028,2.09799 -4.93017958,3.356718 -3.286827,1.258808 -7.4127891,2.342748 -12.3778981,3.25182 l -8.811384,1.573462 0.839179,16.678693 c 0.209771,4.195912 0.314669,7.552627 0.314692,10.070154 -2.3e-5,3.076997 -0.209818,5.174944 -0.629384,6.293846 -0.349681,1.118908 -1.014031,1.67836 -1.993052,1.678359 -0.629405,10e-7 -1.32872,-0.139862 -2.097948,-0.41959 -1.048993,-0.279724 -1.713342,-0.944074 -1.993052,-1.993051 -0.279743,-1.04897 -0.419606,-3.251814 -0.419589,-6.608539 -1.7e-5,-3.216841 -0.629401,-9.44075 -1.888154,-18.671744 -1.188851,-9.300868 -1.78327,-18.741628 -1.783257,-28.322308 l 0,-17.727664 7.657513,-2.72734 c 5.174915,-1.81814 9.265911,-2.72725 12.273001,-2.72733"
         id="path7418"
         inkscape:connector-curvature="0" />
      <path
         d="m 30.346645,-83.702919 c 5.454645,-5.104957 10.035162,-8.461671 13.741564,-10.070154 3.776274,-1.6783 8.53162,-2.517479 14.266052,-2.517539 8.671468,6e-5 14.091164,2.587527 16.259102,7.762411 1.32864,3.07704 1.992989,6.853344 1.993052,11.328923 -6.3e-5,7.412785 -1.643454,14.930428 -4.93018,22.552949 -3.28684,7.552626 -7.342871,12.797493 -12.168103,15.734616 -4.685459,2.867196 -9.615634,4.300793 -14.790538,4.300795 -7.202981,-2e-6 -12.972334,-2.482572 -17.308078,-7.447718 -3.00707,-3.496573 -4.965153,-6.433698 -5.874256,-8.811385 -0.909118,-2.44759 -1.363673,-5.909202 -1.363667,-10.384847 -6e-6,-8.461693 3.391675,-15.94437 10.175052,-22.448051 m 16.888487,43.112847 c 5.874218,4e-6 11.189016,-4.021061 15.944411,-12.063206 4.825228,-8.112044 7.237867,-17.273078 7.237923,-27.483128 -5.6e-5,-1.538451 -0.174885,-2.692322 -0.524487,-3.461616 -0.349714,-0.7692 -0.979098,-1.538447 -1.888154,-2.307743 -2.587521,-2.167829 -5.349818,-3.251768 -8.286898,-3.251821 -0.489566,5.3e-5 -1.049018,0.06998 -1.678359,0.209795 -0.559496,0.06998 -1.503572,0.209847 -2.832231,0.41959 -1.32874,0.139915 -2.9022,0.314744 -4.720384,0.524487 -2.447641,0.349709 -4.405724,0.909161 -5.874257,1.678359 -1.398661,0.699365 -3.181916,2.06303 -5.349769,4.091 -4.125987,3.916213 -7.063112,7.552653 -8.811385,10.909333 -1.748305,3.286818 -2.622449,6.888293 -2.622436,10.804437 -1.3e-5,5.804343 1.783241,10.559688 5.349769,14.266051 3.636422,3.706382 8.321837,5.594534 14.056257,5.664462"
         id="path7420"
         inkscape:connector-curvature="0" />
      <path
         d="m 125.94919,-87.584124 c 1.18879,5.1e-5 2.23776,0.384674 3.14692,1.153871 0.90906,0.699366 1.36362,1.293784 1.36367,1.783257 -5e-5,0.839227 -1.32875,1.783303 -3.98611,2.832231 -4.3358,1.748334 -8.77645,5.979193 -13.32197,12.69259 -4.47565,6.64353 -7.20298,13.077233 -8.182,19.301128 -1.11893,7.063101 -2.02804,11.678583 -2.72733,13.846462 -0.69934,2.237809 -1.60845,3.356714 -2.727337,3.356718 -1.678374,-4e-6 -2.762313,-1.014011 -3.25182,-3.042026 -0.139877,-0.769248 -0.384638,-2.727331 -0.734282,-5.874256 -1.678371,-17.622747 -2.517549,-31.539127 -2.517539,-41.749181 -1e-5,-3.636394 0.139853,-5.874203 0.41959,-6.713436 0.769236,-2.237756 1.748278,-3.356661 2.937128,-3.356718 1.118891,5.7e-5 1.678344,0.944133 1.678359,2.832231 -1.5e-5,3.146974 0.489506,8.217012 1.468564,15.210129 0.979027,6.993194 1.713307,10.489772 2.202847,10.489744 0.62936,2.8e-5 1.9231,-1.92309 3.8812,-5.76936 2.44759,-4.545517 5.6994,-8.49665 9.75547,-11.85341 4.12593,-3.4266 7.65747,-5.139923 10.59464,-5.139974"
         id="path7422"
         inkscape:connector-curvature="0" />
      <path
         d="m 155.99084,-56.324688 c -2e-5,1.398651 -0.52451,2.657419 -1.57346,3.776308 -1.04899,1.048989 -1.57348,1.923134 -1.57347,2.622436 -1e-5,0.76926 0.24475,1.67837 0.73429,2.727333 0.6993,1.538505 1.57344,2.482581 2.62243,2.832231 1.11889,0.349666 3.81125,0.524494 8.0771,0.524487 3.63642,7e-6 6.36375,-0.209787 8.182,-0.629384 1.81819,-0.419582 3.56648,-1.258761 5.24488,-2.517539 2.72729,-1.958073 4.40564,-3.496567 5.03507,-4.615487 0.69927,-1.188822 1.04893,-3.181871 1.04898,-5.979154 -5e-5,-2.097926 -0.38467,-3.566489 -1.15387,-4.405693 -0.7693,-0.909084 -2.83228,-2.132887 -6.18895,-3.67141 -4.82532,-2.237781 -7.93727,-3.356686 -9.33587,-3.356718 -3.00709,3.2e-5 -7.62257,-2.622401 -13.84647,-7.867308 -6.15399,-5.244826 -9.23098,-9.160993 -9.23097,-11.748513 -1e-5,-3.70632 1.88814,-7.937179 5.66446,-12.692591 3.77629,-4.82521 8.00715,-8.35676 12.69259,-10.59464 2.37765,-1.18876 6.88823,-1.78318 13.53177,-1.78326 2.93709,8e-5 5.13993,0.20988 6.60854,0.62939 1.46852,0.41966 3.04198,1.32877 4.72038,2.72733 1.18879,0.97912 2.23776,2.13299 3.14693,3.46162 0.90905,1.25884 1.36361,2.23788 1.36366,2.93713 -5e-5,1.67842 -0.27978,2.5176 -0.83918,2.51753 -0.5595,7e-5 -1.29378,-0.34959 -2.20284,-1.04897 -0.90916,-0.69925 -1.85324,-1.43353 -2.83223,-2.20285 -0.97909,-0.83911 -2.37772,-1.60835 -4.1959,-2.30774 -1.81827,-0.69925 -3.81131,-1.0489 -5.97915,-1.04897 -5.87429,7e-5 -11.25902,2.13298 -16.15421,6.39874 -4.8253,4.265889 -7.23794,8.881371 -7.23792,13.846461 -2e-5,4.056081 7.20293,8.391838 21.60887,13.007282 11.32887,3.566547 16.99333,9.126106 16.99338,16.678693 -5e-5,1.538515 -0.27978,3.32177 -0.83918,5.349769 -1.60847,5.454677 -4.3358,9.230981 -8.182,11.328923 -3.84628,2.097952 -10.55971,3.461617 -20.1403,4.091 l -9.44077,0.629385 -2.83223,-5.874257 c -1.46858,-2.867187 -2.20286,-5.734381 -2.20285,-8.601589 -1e-5,-2.377659 0.55944,-4.300777 1.67836,-5.76936 1.11889,-1.468542 2.69235,-2.202823 4.72038,-2.202846 1.53848,2.3e-5 2.30773,0.944099 2.30775,2.832231"
         id="path7424"
         inkscape:connector-curvature="0" />
      <path
         d="m 251.25082,-78.77274 c -5e-5,1.188879 -0.27978,2.167921 -0.83918,2.937129 -0.48957,0.769286 -1.08399,1.153909 -1.78326,1.153871 -1.32875,3.8e-5 -2.16792,-1.013969 -2.51753,-3.042025 -0.13991,-1.608385 -1.29379,-3.6364 -3.46162,-6.084052 -0.90915,-0.978994 -1.64344,-1.67831 -2.20285,-2.097948 -0.55949,-0.41954 -1.88819,-0.874096 -3.9861,-1.363667 -2.02805,-0.48947 -4.72042,-0.734231 -8.0771,-0.734282 -2.72736,5.1e-5 -4.82531,0.489572 -6.29385,1.468564 -1.39865,0.979092 -3.14694,2.972141 -5.24487,5.979154 -5.03509,7.133062 -7.55263,13.566766 -7.55261,19.301128 -2e-5,2.93715 0.31468,5.419721 0.94407,7.447719 0.62937,1.9581 1.22379,3.2868 1.78326,3.986102 0.62937,0.629397 1.64338,1.643405 3.04202,3.042026 2.028,1.958094 3.5665,3.216862 4.61549,3.776308 1.11889,0.489527 2.65738,0.734287 4.61549,0.734282 6.08402,5e-6 12.72752,-4.125956 19.93051,-12.377898 3.77626,-4.195875 6.50359,-6.293822 8.182,-6.293846 0.90906,2.4e-5 1.36361,0.664374 1.36367,1.993051 -6e-5,1.25879 -1.67841,3.951155 -5.03508,8.077103 -3.28683,4.125976 -6.11906,7.028135 -8.49669,8.706487 -5.52464,3.986104 -10.45481,5.979154 -14.79054,5.979154 -3.14695,0 -6.60856,-0.944076 -10.38485,-2.832231 -3.84625,-1.888149 -6.64351,-4.440651 -8.39179,-7.657513 -1.67837,-3.216841 -2.69237,-7.902255 -3.04203,-14.056256 -0.2098,-2.377649 -0.31469,-4.265801 -0.31469,-5.664462 0,-2.727301 0.94407,-5.839255 2.83223,-9.335872 1.95808,-3.776265 4.79031,-7.412706 8.49669,-10.909334 3.77629,-3.496527 7.02811,-5.62944 9.75547,-6.398743 2.09792,-0.489465 4.37069,-0.734225 6.81833,-0.734282 5.31477,5.7e-5 9.96521,1.71338 13.95136,5.139974 4.05598,3.356767 6.084,6.64355 6.08405,9.860359"
         id="path7426"
         inkscape:connector-curvature="0" />
      <path
         d="m 317.47881,-59.156919 c 0.34959,2.3e-5 0.52442,0.279749 0.52448,0.83918 -6e-5,1.258789 -0.94413,3.286805 -2.83223,6.084051 -1.81828,2.797278 -3.77636,5.105019 -5.87425,6.923231 -7.34287,6.503643 -14.68568,9.755461 -22.02847,9.755462 -2.79729,-1e-6 -5.59455,-0.629385 -8.39179,-1.888154 -2.72735,-1.328699 -5.27986,-3.181885 -7.65751,-5.559564 -2.37769,-2.377667 -4.30081,-5.559553 -5.76936,-9.545667 -1.46857,-3.986083 -2.20286,-8.426737 -2.20285,-13.321975 -10e-6,-3.007027 0.34965,-5.559529 1.04897,-7.657513 1.39863,-4.265788 4.37072,-8.776373 8.91629,-13.531769 4.61546,-4.755296 8.95122,-7.132968 13.00728,-7.133026 1.11888,5.8e-5 2.79723,0.104955 5.03508,0.314692 3.35668,0.279784 5.69938,0.629442 7.02812,1.048975 1.39859,0.419645 2.97205,1.29379 4.72039,2.622436 2.23776,1.678411 4.16088,3.846289 5.76936,6.503641 1.6783,2.587514 2.51748,4.755393 2.51754,6.503641 -6e-5,2.23785 -0.8742,3.951173 -2.62244,5.139974 -1.74834,1.118941 -5.14002,2.237846 -10.17505,3.356718 -6.50368,1.468595 -12.93738,2.377705 -19.30113,2.727334 l -9.75546,0.524487 0,4.195897 c -1e-5,5.17496 2.41263,10.070169 7.23792,14.685642 3.63642,3.496588 7.41273,5.244876 11.32893,5.244872 3.00702,4e-6 6.18891,-0.909106 9.54566,-2.727334 3.42661,-1.888144 6.32877,-3.951125 8.70649,-6.188949 2.37762,-2.237796 4.6504,-4.265811 6.81833,-6.084051 2.16783,-1.888132 3.63639,-2.832208 4.4057,-2.832231 m -16.88849,-25.594975 c -2.16792,-1.958035 -3.81131,-3.181837 -4.93018,-3.67141 -1.04901,-0.559401 -2.44764,-0.839127 -4.1959,-0.839179 -3.49661,5.2e-5 -6.11904,0.34971 -7.86731,1.048974 -1.67838,0.629436 -3.3917,1.958135 -5.13997,3.986103 -5.31482,6.084092 -7.97222,10.140123 -7.97221,12.168102 -1e-5,0.909146 0.83917,1.363701 2.51754,1.363667 6.36376,3.4e-5 15.38493,-1.328665 27.06354,-3.986103 3.49654,-0.83914 5.24482,-2.307703 5.24487,-4.405692 -5e-5,-0.978999 -1.57351,-2.867151 -4.72038,-5.664462"
         id="path7428"
         inkscape:connector-curvature="0" />
      <path
         d="m 335.85553,-93.353484 c -10e-6,-2.377616 0.6993,-3.566452 2.09795,-3.566512 0.76923,6e-5 1.32868,0.559512 1.67836,1.678359 0.4895,1.538552 1.36365,8.112119 2.62244,19.720718 1.39861,11.328951 2.13289,17.063338 2.20284,17.20318 0.0699,0.06995 0.34964,-0.594397 0.83918,-1.993052 0.55943,-1.468539 1.29371,-3.636417 2.20285,-6.503641 1.3986,-4.615452 2.58744,-7.937201 3.56651,-9.965256 0.97901,-2.097907 2.7273,-4.965101 5.24487,-8.60159 5.10497,-7.063039 9.0561,-10.594582 11.85341,-10.594642 1.81818,6e-5 3.5315,1.223862 5.13998,3.671411 2.16782,3.216907 3.49652,6.398793 3.9861,9.545667 0.48947,3.146966 0.83912,10.594676 1.04897,22.343154 0.13981,7.552632 0.20974,12.028251 0.2098,13.426872 -6e-5,3.496588 -0.13992,6.04909 -0.41959,7.657513 -0.20985,1.538497 -0.55951,2.482573 -1.04898,2.832231 -0.41964,0.419589 -1.18889,0.66435 -2.30774,0.734282 -0.62943,-1e-6 -1.04902,-0.279727 -1.25877,-0.83918 -0.20984,-0.48952 -0.31474,-1.678357 -0.31469,-3.566512 -5e-5,-1.04897 0.0699,-3.28678 0.20979,-6.713437 0.13982,-3.496567 0.20975,-6.433692 0.2098,-8.811384 -5e-5,-5.944163 -0.24481,-11.748483 -0.73428,-17.412975 -0.41964,-5.734351 -0.94413,-9.405758 -1.57346,-11.014231 -0.34971,-0.909063 -0.90916,-1.853139 -1.67836,-2.832231 -0.7693,-0.978991 -1.50358,-1.468512 -2.20285,-1.468564 -1.46861,5.2e-5 -3.81131,2.517588 -7.02813,7.552616 -3.21689,4.965184 -5.97918,10.210051 -8.2869,15.734615 -2.1679,5.035101 -3.63647,8.916302 -4.40569,11.643616 -0.69934,2.657416 -1.29376,6.293857 -1.78325,10.909333 -0.76927,7.133025 -1.32873,10.699534 -1.67836,10.699539 -0.55948,-5e-6 -1.36369,-0.594423 -2.41264,-1.783256 -0.76927,-0.76925 -1.29376,-2.412642 -1.57347,-4.93018 -0.27974,-2.587465 -0.66436,-7.657503 -1.15387,-15.210128 -0.48954,-7.622523 -1.15388,-15.314994 -1.99305,-23.077437 -0.83919,-8.042088 -1.25878,-13.531715 -1.25877,-16.468898"
         id="path7430"
         inkscape:connector-curvature="0" />
      <path
         d="m 447.16646,-59.156919 c 0.3496,2.3e-5 0.52442,0.279749 0.52448,0.83918 -6e-5,1.258789 -0.94413,3.286805 -2.83223,6.084051 -1.81827,2.797278 -3.77636,5.105019 -5.87425,6.923231 -7.34287,6.503643 -14.68568,9.755461 -22.02846,9.755462 -2.7973,-1e-6 -5.59456,-0.629385 -8.3918,-1.888154 -2.72735,-1.328699 -5.27985,-3.181885 -7.65751,-5.559564 -2.37769,-2.377667 -4.30081,-5.559553 -5.76936,-9.545667 -1.46857,-3.986083 -2.20285,-8.426737 -2.20285,-13.321975 0,-3.007027 0.34965,-5.559529 1.04898,-7.657513 1.39862,-4.265788 4.37071,-8.776373 8.91628,-13.531769 4.61547,-4.755296 8.95122,-7.132968 13.00728,-7.133026 1.11888,5.8e-5 2.79724,0.104955 5.03508,0.314692 3.35668,0.279784 5.69939,0.629442 7.02813,1.048975 1.39859,0.419645 2.97205,1.29379 4.72038,2.622436 2.23777,1.678411 4.16088,3.846289 5.76936,6.503641 1.67831,2.587514 2.51749,4.755393 2.51754,6.503641 -5e-5,2.23785 -0.8742,3.951173 -2.62244,5.139974 -1.74834,1.118941 -5.14002,2.237846 -10.17505,3.356718 -6.50367,1.468595 -12.93738,2.377705 -19.30113,2.727334 l -9.75546,0.524487 0,4.195897 c -10e-6,5.17496 2.41263,10.070169 7.23792,14.685642 3.63643,3.496588 7.41273,5.244876 11.32893,5.244872 3.00702,4e-6 6.18891,-0.909106 9.54566,-2.727334 3.42661,-1.888144 6.32877,-3.951125 8.70649,-6.188949 2.37763,-2.237796 4.6504,-4.265811 6.81834,-6.084051 2.16782,-1.888132 3.63638,-2.832208 4.40569,-2.832231 m -16.88849,-25.594975 c -2.16792,-1.958035 -3.81131,-3.181837 -4.93018,-3.67141 -1.04901,-0.559401 -2.44764,-0.839127 -4.1959,-0.839179 -3.49661,5.2e-5 -6.11904,0.34971 -7.8673,1.048974 -1.67839,0.629436 -3.39171,1.958135 -5.13998,3.986103 -5.31482,6.084092 -7.97222,10.140123 -7.9722,12.168102 -2e-5,0.909146 0.83916,1.363701 2.51753,1.363667 6.36376,3.4e-5 15.38493,-1.328665 27.06354,-3.986103 3.49654,-0.83914 5.24483,-2.307703 5.24487,-4.405692 -4e-5,-0.978999 -1.5735,-2.867151 -4.72038,-5.664462"
         id="path7432"
         inkscape:connector-curvature="0" />
    </g>
    <g
       id="g7450"
       transform="matrix(2.6863083,0,0,1,150.34215,-148.80788)">
      <g
         transform="matrix(0.8265838,0,0,0.74409033,66.606714,336.44509)"
         id="g3906"
         style="fill:#008000">
        <g
           transform="translate(3.0513149,8.4739963)"
           id="g4418" />
      </g>
    </g>
  </g>
</svg>
